<svg width="50" height="36" viewBox="0 0 50 36" fill="none" xmlns="http://www.w3.org/2000/svg">
<rect x="179.979" y="35.569" width="179.979" height="35.569" transform="rotate(-180 179.979 35.569)" fill="url(#paint0_linear_91_1095)"/>
<path d="M28.2422 10.3828H16.4453C15.4758 10.3828 14.6875 11.1715 14.6875 12.1406C14.6875 13.1102 15.4758 13.8984 16.4453 13.8984H28.2422C29.2113 13.8984 30 13.1102 30 12.1406C30 11.1715 29.2113 10.3828 28.2422 10.3828Z" fill="white"/>
<path d="M28.2422 16.2422H16.4453C15.4758 16.2422 14.6875 17.0309 14.6875 18C14.6875 18.9695 15.4758 19.7578 16.4453 19.7578H28.2422C29.2113 19.7578 30 18.9695 30 18C30 17.0309 29.2113 16.2422 28.2422 16.2422Z" fill="white"/>
<path d="M28.2422 22.1016H16.4453C15.4758 22.1016 14.6875 22.8902 14.6875 23.8594C14.6875 24.8289 15.4758 25.6172 16.4453 25.6172H28.2422C29.2113 25.6172 30 24.8289 30 23.8594C30 22.8902 29.2113 22.1016 28.2422 22.1016Z" fill="white"/>
<path d="M11.7578 10.3828C10.7883 10.3828 10 11.1715 10 12.1406C10 13.1102 10.7883 13.8984 11.7578 13.8984C12.727 13.8984 13.5156 13.1102 13.5156 12.1406C13.5156 11.1715 12.727 10.3828 11.7578 10.3828Z" fill="white"/>
<path d="M11.7578 16.2422C10.7883 16.2422 10 17.0309 10 18C10 18.9695 10.7883 19.7578 11.7578 19.7578C12.727 19.7578 13.5156 18.9695 13.5156 18C13.5156 17.0309 12.727 16.2422 11.7578 16.2422Z" fill="white"/>
<path d="M11.7578 22.1016C10.7883 22.1016 10 22.8902 10 23.8594C10 24.8289 10.7883 25.6172 11.7578 25.6172C12.727 25.6172 13.5156 24.8289 13.5156 23.8594C13.5156 22.8902 12.727 22.1016 11.7578 22.1016Z" fill="white"/>
<defs>
<linearGradient id="paint0_linear_91_1095" x1="220.063" y1="22.7642" x2="363.938" y2="50.474" gradientUnits="userSpaceOnUse">
<stop stop-color="#5E3928"/>
<stop offset="0.911458" stop-color="#E4A16F"/>
</linearGradient>
</defs>
</svg>
