<svg width="50" height="83" viewBox="0 0 50 83" fill="none" xmlns="http://www.w3.org/2000/svg">
<rect x="50" y="-170" width="253" height="50" transform="rotate(90 50 -170)" fill="white"/>
<g clip-path="url(#clip0_16_70)">
<path d="M25 55C26.4834 55 27.9334 54.5601 29.1668 53.736C30.4001 52.9119 31.3614 51.7406 31.9291 50.3701C32.4968 48.9997 32.6453 47.4917 32.3559 46.0368C32.0665 44.582 31.3522 43.2456 30.3033 42.1967C29.2544 41.1478 27.918 40.4335 26.4632 40.1441C25.0083 39.8547 23.5003 40.0032 22.1299 40.5709C20.7594 41.1386 19.5881 42.0999 18.764 43.3332C17.9399 44.5666 17.5 46.0166 17.5 47.5C17.502 49.4885 18.2928 51.395 19.6989 52.8011C21.105 54.2072 23.0115 54.998 25 55ZM25 42.5C25.9889 42.5 26.9556 42.7932 27.7779 43.3427C28.6001 43.8921 29.241 44.673 29.6194 45.5866C29.9978 46.5002 30.0969 47.5055 29.9039 48.4755C29.711 49.4454 29.2348 50.3363 28.5355 51.0355C27.8363 51.7348 26.9454 52.211 25.9755 52.4039C25.0055 52.5969 24.0002 52.4978 23.0866 52.1194C22.173 51.741 21.3921 51.1001 20.8427 50.2779C20.2932 49.4556 20 48.4889 20 47.5C20 46.1739 20.5268 44.9022 21.4645 43.9645C22.4021 43.0268 23.6739 42.5 25 42.5Z" fill="#0B3F37"/>
<path d="M25 57.5C22.0173 57.5033 19.1578 58.6896 17.0487 60.7987C14.9396 62.9078 13.7533 65.7673 13.75 68.75C13.75 69.0815 13.8817 69.3995 14.1161 69.6339C14.3505 69.8683 14.6685 70 15 70C15.3315 70 15.6495 69.8683 15.8839 69.6339C16.1183 69.3995 16.25 69.0815 16.25 68.75C16.25 66.4294 17.1719 64.2038 18.8128 62.5628C20.4538 60.9219 22.6794 60 25 60C27.3206 60 29.5462 60.9219 31.1872 62.5628C32.8281 64.2038 33.75 66.4294 33.75 68.75C33.75 69.0815 33.8817 69.3995 34.1161 69.6339C34.3505 69.8683 34.6685 70 35 70C35.3315 70 35.6495 69.8683 35.8839 69.6339C36.1183 69.3995 36.25 69.0815 36.25 68.75C36.2467 65.7673 35.0604 62.9078 32.9513 60.7987C30.8422 58.6896 27.9827 57.5033 25 57.5Z" fill="#0B3F37"/>
</g>
<defs>
<clipPath id="clip0_16_70">
<rect width="30" height="30" fill="white" transform="translate(10 40)"/>
</clipPath>
</defs>
</svg>
