<svg width="50" height="83" viewBox="0 0 50 83" fill="none" xmlns="http://www.w3.org/2000/svg">
<rect x="50" y="-170" width="253" height="50" transform="rotate(90 50 -170)" fill="white"/>
<g clip-path="url(#clip0_16_102)">
<path d="M37.4985 45.7565C37.1703 45.3627 36.7595 45.0459 36.2951 44.8288C35.8308 44.6116 35.3243 44.4994 34.8117 44.5H15.949L15.9 44.0905C15.7997 43.2393 15.3906 42.4545 14.7502 41.8849C14.1099 41.3153 13.2827 41.0004 12.4257 41H12.1667C11.8572 41 11.5605 41.1229 11.3417 41.3417C11.1229 41.5605 11 41.8572 11 42.1667C11 42.4761 11.1229 42.7728 11.3417 42.9916C11.5605 43.2104 11.8572 43.3333 12.1667 43.3333H12.4257C12.7114 43.3334 12.9872 43.4383 13.2008 43.6282C13.4143 43.8181 13.5507 44.0797 13.5842 44.3635L15.1895 58.0135C15.3562 59.4331 16.0382 60.7421 17.1062 61.692C18.1742 62.6419 19.5538 63.1667 20.9832 63.1667H33.1667C33.4761 63.1667 33.7728 63.0438 33.9916 62.825C34.2104 62.6062 34.3333 62.3094 34.3333 62C34.3333 61.6906 34.2104 61.3938 33.9916 61.175C33.7728 60.9562 33.4761 60.8333 33.1667 60.8333H20.9832C20.2611 60.8313 19.5573 60.606 18.9683 60.1882C18.3792 59.7705 17.9339 59.1808 17.6932 58.5H31.5998C32.9675 58.5001 34.2917 58.0196 35.3411 57.1425C36.3905 56.2654 37.0984 55.0475 37.341 53.7015L38.2568 48.6218C38.3483 48.1178 38.3277 47.5999 38.1967 47.1047C38.0656 46.6096 37.8273 46.1493 37.4985 45.7565ZM35.9667 48.2077L35.0497 53.2873C34.904 54.0958 34.4785 54.8273 33.8478 55.3537C33.2171 55.8801 32.4214 56.1679 31.5998 56.1667H17.3222L16.2243 46.8333H34.8117C34.9831 46.8323 35.1526 46.8691 35.3081 46.941C35.4637 47.0129 35.6015 47.1182 35.7118 47.2494C35.822 47.3806 35.902 47.5345 35.9461 47.7001C35.9902 47.8657 35.9972 48.039 35.9667 48.2077Z" fill="url(#paint0_linear_16_102)"/>
<path d="M19.1667 69C20.4554 69 21.5 67.9553 21.5 66.6667C21.5 65.378 20.4554 64.3333 19.1667 64.3333C17.878 64.3333 16.8334 65.378 16.8334 66.6667C16.8334 67.9553 17.878 69 19.1667 69Z" fill="url(#paint1_linear_16_102)"/>
<path d="M30.8333 69C32.122 69 33.1667 67.9553 33.1667 66.6667C33.1667 65.378 32.122 64.3333 30.8333 64.3333C29.5447 64.3333 28.5 65.378 28.5 66.6667C28.5 67.9553 29.5447 69 30.8333 69Z" fill="url(#paint2_linear_16_102)"/>
</g>
<defs>
<linearGradient id="paint0_linear_16_102" x1="17.083" y1="33.02" x2="39.6771" y2="34.0797" gradientUnits="userSpaceOnUse">
<stop stop-color="#5E3928"/>
<stop offset="0.911458" stop-color="#E4A16F"/>
</linearGradient>
<linearGradient id="paint1_linear_16_102" x1="17.8727" y1="62.6533" x2="21.736" y2="62.8004" gradientUnits="userSpaceOnUse">
<stop stop-color="#5E3928"/>
<stop offset="0.911458" stop-color="#E4A16F"/>
</linearGradient>
<linearGradient id="paint2_linear_16_102" x1="29.5393" y1="62.6533" x2="33.4026" y2="62.8004" gradientUnits="userSpaceOnUse">
<stop stop-color="#5E3928"/>
<stop offset="0.911458" stop-color="#E4A16F"/>
</linearGradient>
<clipPath id="clip0_16_102">
<rect width="28" height="28" fill="white" transform="translate(11 41)"/>
</clipPath>
</defs>
</svg>
