<svg width="50" height="83" viewBox="0 0 50 83" fill="none" xmlns="http://www.w3.org/2000/svg">
<rect x="50" y="-170" width="253" height="50" transform="rotate(90 50 -170)" fill="white"/>
<g clip-path="url(#clip0_23_357)">
<path d="M31.8749 42.3962C30.4674 42.4181 29.0905 42.8111 27.8834 43.5353C26.6763 44.2596 25.6816 45.2896 24.9999 46.5212C24.3182 45.2896 23.3236 44.2596 22.1165 43.5353C20.9094 42.8111 19.5325 42.4181 18.1249 42.3962C15.8811 42.4937 13.7671 43.4753 12.2447 45.1265C10.7223 46.7778 9.91526 48.9644 9.99995 51.2087C9.99995 56.8925 15.9824 63.1 20.9999 67.3087C22.1202 68.2502 23.5366 68.7663 24.9999 68.7663C26.4633 68.7663 27.8797 68.2502 28.9999 67.3087C34.0174 63.1 39.9999 56.8925 39.9999 51.2087C40.0846 48.9644 39.2776 46.7778 37.7552 45.1265C36.2328 43.4753 34.1188 42.4937 31.8749 42.3962ZM27.3937 65.3962C26.7237 65.9605 25.8759 66.2699 24.9999 66.2699C24.124 66.2699 23.2762 65.9605 22.6062 65.3962C16.1837 60.0075 12.4999 54.8375 12.4999 51.2087C12.4145 49.6271 12.9579 48.0759 14.0117 46.8934C15.0654 45.7108 16.544 44.9929 18.1249 44.8962C19.7059 44.9929 21.1845 45.7108 22.2382 46.8934C23.292 48.0759 23.8354 49.6271 23.7499 51.2087C23.7499 51.5403 23.8816 51.8582 24.1161 52.0926C24.3505 52.327 24.6684 52.4587 24.9999 52.4587C25.3315 52.4587 25.6494 52.327 25.8838 52.0926C26.1182 51.8582 26.2499 51.5403 26.2499 51.2087C26.1645 49.6271 26.7079 48.0759 27.7617 46.8934C28.8154 45.7108 30.294 44.9929 31.8749 44.8962C33.4559 44.9929 34.9345 45.7108 35.9882 46.8934C37.042 48.0759 37.5854 49.6271 37.4999 51.2087C37.4999 54.8375 33.8162 60.0075 27.3937 65.3912V65.3962Z" fill="#0B3F37"/>
</g>
<defs>
<clipPath id="clip0_23_357">
<rect width="30" height="30" fill="white" transform="translate(10 40)"/>
</clipPath>
</defs>
</svg>
