<svg width="30" height="27" viewBox="0 0 30 27" fill="none" xmlns="http://www.w3.org/2000/svg">
<path d="M21.8749 0.39624C20.4674 0.418134 19.0905 0.811057 17.8834 1.53533C16.6763 2.2596 15.6816 3.28958 14.9999 4.52124C14.3182 3.28958 13.3236 2.2596 12.1165 1.53533C10.9094 0.811057 9.53251 0.418134 8.12495 0.39624C5.88112 0.493729 3.76708 1.47531 2.24468 3.12653C0.722272 4.77775 -0.0847403 6.9644 -5.21373e-05 9.20874C-5.21373e-05 14.8925 5.98245 21.1 10.9999 25.3087C12.1202 26.2502 13.5366 26.7663 14.9999 26.7663C16.4633 26.7663 17.8797 26.2502 18.9999 25.3087C24.0174 21.1 29.9999 14.8925 29.9999 9.20874C30.0846 6.9644 29.2776 4.77775 27.7552 3.12653C26.2328 1.47531 24.1188 0.493729 21.8749 0.39624ZM17.3937 23.3962C16.7237 23.9605 15.8759 24.2699 14.9999 24.2699C14.124 24.2699 13.2762 23.9605 12.6062 23.3962C6.1837 18.0075 2.49995 12.8375 2.49995 9.20874C2.4145 7.62714 2.95791 6.0759 4.01165 4.89336C5.0654 3.71083 6.54399 2.99293 8.12495 2.89624C9.7059 2.99293 11.1845 3.71083 12.2382 4.89336C13.292 6.0759 13.8354 7.62714 13.7499 9.20874C13.7499 9.54026 13.8816 9.8582 14.1161 10.0926C14.3505 10.327 14.6684 10.4587 14.9999 10.4587C15.3315 10.4587 15.6494 10.327 15.8838 10.0926C16.1182 9.8582 16.2499 9.54026 16.2499 9.20874C16.1645 7.62714 16.7079 6.0759 17.7617 4.89336C18.8154 3.71083 20.294 2.99293 21.8749 2.89624C23.4559 2.99293 24.9345 3.71083 25.9882 4.89336C27.042 6.0759 27.5854 7.62714 27.4999 9.20874C27.4999 12.8375 23.8162 18.0075 17.3937 23.3912V23.3962Z" fill="#031412"/>
</svg>
